<svg data-v-423bf9ae="" xmlns="http://www.w3.org/2000/svg" viewBox="0 0 588.5603051980539 188" class="iconAboveSlogan"><!----><!----><!----><g data-v-423bf9ae="" id="7eb0f1d0-6759-4227-95dc-064c5c9f0c96" fill="#ffffff" transform="matrix(5.8365760270947415,0,0,5.8365760270947415,-5.486385415465861,81.75486384118685)"><path d="M4.42 13.92L4.42 13.92L4.42 13.92Q3.23 13.92 2.28 13.23L2.28 13.23L2.28 13.23Q1.33 12.54 0.94 11.40L0.94 11.40L2.45 10.84L2.45 10.84Q2.77 11.52 3.34 11.94L3.34 11.94L3.34 11.94Q3.91 12.35 4.56 12.35L4.56 12.35L4.56 12.35Q5.21 12.35 5.60 12.01L5.60 12.01L5.60 12.01Q5.99 11.68 5.99 11.05L5.99 11.05L5.99 11.05Q5.99 10.51 5.46 10.10L5.46 10.10L5.46 10.10Q4.93 9.69 3.98 9.27L3.98 9.27L3.98 9.27Q3.37 9.00 3.01 8.81L3.01 8.81L3.01 8.81Q2.65 8.61 2.19 8.26L2.19 8.26L2.19 8.26Q1.74 7.91 1.51 7.43L1.51 7.43L1.51 7.43Q1.29 6.96 1.29 6.37L1.29 6.37L1.29 6.37Q1.29 5.28 2.12 4.53L2.12 4.53L2.12 4.53Q2.95 3.78 4.31 3.78L4.31 3.78L4.31 3.78Q5.39 3.78 6.20 4.37L6.20 4.37L6.20 4.37Q7 4.96 7.27 5.87L7.27 5.87L5.77 6.37L5.77 6.37Q5.26 5.35 4.21 5.35L4.21 5.35L4.21 5.35Q3.67 5.35 3.32 5.63L3.32 5.63L3.32 5.63Q2.97 5.91 2.97 6.40L2.97 6.40L2.97 6.40Q2.97 6.51 3.00 6.62L3.00 6.62L3.00 6.62Q3.02 6.72 3.09 6.81L3.09 6.81L3.09 6.81Q3.16 6.90 3.23 6.98L3.23 6.98L3.23 6.98Q3.29 7.06 3.42 7.15L3.42 7.15L3.42 7.15Q3.56 7.24 3.65 7.29L3.65 7.29L3.65 7.29Q3.74 7.35 3.92 7.44L3.92 7.44L3.92 7.44Q4.10 7.53 4.20 7.57L4.20 7.57L4.20 7.57Q4.30 7.62 4.52 7.72L4.52 7.72L4.52 7.72Q4.75 7.83 4.84 7.87L4.84 7.87L4.84 7.87Q5.43 8.13 5.82 8.37L5.82 8.37L5.82 8.37Q6.22 8.60 6.69 8.97L6.69 8.97L6.69 8.97Q7.17 9.35 7.42 9.87L7.42 9.87L7.42 9.87Q7.67 10.39 7.67 11.00L7.67 11.00L7.67 11.00Q7.67 12.35 6.73 13.13L6.73 13.13L6.73 13.13Q5.78 13.92 4.42 13.92ZM12.94 13.92L12.94 13.92L12.94 13.92Q11.35 13.92 10.43 12.92L10.43 12.92L10.43 12.92Q9.51 11.91 9.51 10.18L9.51 10.18L9.51 10.18Q9.51 8.46 10.43 7.44L10.43 7.44L10.43 7.44Q11.35 6.43 12.94 6.43L12.94 6.43L12.94 6.43Q14.53 6.43 15.45 7.44L15.45 7.44L15.45 7.44Q16.37 8.46 16.37 10.18L16.37 10.18L16.37 10.18Q16.37 11.90 15.45 12.91L15.45 12.91L15.45 12.91Q14.53 13.92 12.94 13.92ZM12.94 12.38L12.94 12.38L12.94 12.38Q13.80 12.38 14.27 11.79L14.27 11.79L14.27 11.79Q14.74 11.20 14.74 10.18L14.74 10.18L14.74 10.18Q14.74 9.16 14.27 8.55L14.27 8.55L14.27 8.55Q13.80 7.95 12.94 7.95L12.94 7.95L12.94 7.95Q12.08 7.95 11.61 8.55L11.61 8.55L11.61 8.55Q11.13 9.16 11.13 10.18L11.13 10.18L11.13 10.18Q11.13 11.19 11.61 11.78L11.61 11.78L11.61 11.78Q12.08 12.38 12.94 12.38ZM21.70 13.92L21.70 13.92L21.70 13.92Q20.19 13.92 19.31 12.92L19.31 12.92L19.31 12.92Q18.42 11.93 18.42 10.18L18.42 10.18L18.42 10.18Q18.42 8.44 19.33 7.43L19.33 7.43L19.33 7.43Q20.23 6.43 21.73 6.43L21.73 6.43L21.73 6.43Q24.01 6.43 24.67 8.37L24.67 8.37L23.14 8.89L23.14 8.89Q22.78 7.95 21.74 7.95L21.74 7.95L21.74 7.95Q20.94 7.95 20.50 8.55L20.50 8.55L20.50 8.55Q20.06 9.16 20.06 10.18L20.06 10.18L20.06 10.18Q20.06 11.20 20.50 11.79L20.50 11.79L20.50 11.79Q20.94 12.38 21.71 12.38L21.71 12.38L21.71 12.38Q22.83 12.38 23.18 11.33L23.18 11.33L24.71 11.80L24.71 11.80Q24.07 13.92 21.70 13.92ZM30.24 5.60L30.24 5.60L30.24 5.60Q29.85 5.60 29.57 5.32L29.57 5.32L29.57 5.32Q29.29 5.04 29.29 4.63L29.29 4.63L29.29 4.63Q29.29 4.23 29.57 3.96L29.57 3.96L29.57 3.96Q29.85 3.68 30.24 3.68L30.24 3.68L30.24 3.68Q30.65 3.68 30.93 3.96L30.93 3.96L30.93 3.96Q31.21 4.23 31.21 4.63L31.21 4.63L31.21 4.63Q31.21 5.04 30.93 5.32L30.93 5.32L30.93 5.32Q30.65 5.60 30.24 5.60ZM31.05 6.59L31.05 12.33L33.03 12.33L33.03 13.75L27.47 13.75L27.47 12.33L29.44 12.33L29.44 8.01L27.47 8.01L27.47 6.59L31.05 6.59ZM38.26 13.92L38.26 13.92L38.26 13.92Q37.09 13.92 36.35 13.30L36.35 13.30L36.35 13.30Q35.62 12.68 35.62 11.54L35.62 11.54L35.62 11.54Q35.62 10.37 36.46 9.77L36.46 9.77L36.46 9.77Q37.30 9.17 38.47 9.17L38.47 9.17L38.47 9.17Q39.49 9.17 40.25 9.55L40.25 9.55L40.25 9.13L40.25 9.13Q40.25 7.84 38.84 7.84L38.84 7.84L38.84 7.84Q37.66 7.84 36.57 8.57L36.57 8.57L36.08 7.25L36.08 7.25Q37.38 6.43 38.98 6.43L38.98 6.43L38.98 6.43Q41.82 6.43 41.82 9.11L41.82 9.11L41.82 13.75L40.25 13.75L40.25 13.19L40.25 13.19Q39.49 13.92 38.26 13.92ZM38.56 12.50L38.56 12.50L38.56 12.50Q39.56 12.50 40.25 11.79L40.25 11.79L40.25 10.86L40.25 10.86Q39.61 10.54 38.72 10.54L38.72 10.54L38.72 10.54Q38.05 10.54 37.61 10.79L37.61 10.79L37.61 10.79Q37.17 11.05 37.17 11.54L37.17 11.54L37.17 11.54Q37.17 11.97 37.53 12.24L37.53 12.24L37.53 12.24Q37.90 12.50 38.56 12.50ZM48.23 3.64L48.23 12.33L50.32 12.33L50.32 13.75L44.53 13.75L44.53 12.33L46.62 12.33L46.62 5.05L44.95 5.05L44.21 3.64L48.23 3.64ZM64.79 13.92L64.79 13.92L64.79 13.92Q63.60 13.92 62.65 13.23L62.65 13.23L62.65 13.23Q61.70 12.54 61.31 11.40L61.31 11.40L62.82 10.84L62.82 10.84Q63.14 11.52 63.71 11.94L63.71 11.94L63.71 11.94Q64.27 12.35 64.93 12.35L64.93 12.35L64.93 12.35Q65.58 12.35 65.97 12.01L65.97 12.01L65.97 12.01Q66.36 11.68 66.36 11.05L66.36 11.05L66.36 11.05Q66.36 10.51 65.83 10.10L65.83 10.10L65.83 10.10Q65.30 9.69 64.34 9.27L64.34 9.27L64.34 9.27Q63.74 9.00 63.38 8.81L63.38 8.81L63.38 8.81Q63.01 8.61 62.56 8.26L62.56 8.26L62.56 8.26Q62.10 7.91 61.88 7.43L61.88 7.43L61.88 7.43Q61.66 6.96 61.66 6.37L61.66 6.37L61.66 6.37Q61.66 5.28 62.49 4.53L62.49 4.53L62.49 4.53Q63.32 3.78 64.68 3.78L64.68 3.78L64.68 3.78Q65.76 3.78 66.56 4.37L66.56 4.37L66.56 4.37Q67.37 4.96 67.63 5.87L67.63 5.87L66.14 6.37L66.14 6.37Q65.63 5.35 64.58 5.35L64.58 5.35L64.58 5.35Q64.04 5.35 63.69 5.63L63.69 5.63L63.69 5.63Q63.34 5.91 63.34 6.40L63.34 6.40L63.34 6.40Q63.34 6.51 63.36 6.62L63.36 6.62L63.36 6.62Q63.39 6.72 63.46 6.81L63.46 6.81L63.46 6.81Q63.53 6.90 63.60 6.98L63.60 6.98L63.60 6.98Q63.66 7.06 63.79 7.15L63.79 7.15L63.79 7.15Q63.92 7.24 64.02 7.29L64.02 7.29L64.02 7.29Q64.11 7.35 64.29 7.44L64.29 7.44L64.29 7.44Q64.47 7.53 64.57 7.57L64.57 7.57L64.57 7.57Q64.67 7.62 64.89 7.72L64.89 7.72L64.89 7.72Q65.11 7.83 65.21 7.87L65.21 7.87L65.21 7.87Q65.80 8.13 66.19 8.37L66.19 8.37L66.19 8.37Q66.58 8.60 67.06 8.97L67.06 8.97L67.06 8.97Q67.54 9.35 67.79 9.87L67.79 9.87L67.79 9.87Q68.04 10.39 68.04 11.00L68.04 11.00L68.04 11.00Q68.04 12.35 67.10 13.13L67.10 13.13L67.10 13.13Q66.15 13.92 64.79 13.92ZM71.78 13.75L70.17 13.75L70.17 4.38L71.78 3.64L71.78 7.29L71.78 7.29Q72.48 6.43 73.81 6.43L73.81 6.43L73.81 6.43Q74.98 6.43 75.72 7.13L75.72 7.13L75.72 7.13Q76.45 7.84 76.45 9.38L76.45 9.38L76.45 13.75L74.84 13.75L74.84 9.72L74.84 9.72Q74.84 8.79 74.43 8.37L74.43 8.37L74.43 8.37Q74.02 7.95 73.36 7.95L73.36 7.95L73.36 7.95Q72.66 7.95 72.22 8.36L72.22 8.36L72.22 8.36Q71.78 8.76 71.78 9.69L71.78 9.69L71.78 13.75ZM81.93 13.92L81.93 13.92L81.93 13.92Q80.35 13.92 79.42 12.92L79.42 12.92L79.42 12.92Q78.50 11.91 78.50 10.18L78.50 10.18L78.50 10.18Q78.50 8.46 79.42 7.44L79.42 7.44L79.42 7.44Q80.35 6.43 81.93 6.43L81.93 6.43L81.93 6.43Q83.52 6.43 84.44 7.44L84.44 7.44L84.44 7.44Q85.36 8.46 85.36 10.18L85.36 10.18L85.36 10.18Q85.36 11.90 84.44 12.91L84.44 12.91L84.44 12.91Q83.52 13.92 81.93 13.92ZM81.93 12.38L81.93 12.38L81.93 12.38Q82.80 12.38 83.27 11.79L83.27 11.79L83.27 11.79Q83.73 11.20 83.73 10.18L83.73 10.18L83.73 10.18Q83.73 9.16 83.27 8.55L83.27 8.55L83.27 8.55Q82.80 7.95 81.93 7.95L81.93 7.95L81.93 7.95Q81.07 7.95 80.60 8.55L80.60 8.55L80.60 8.55Q80.12 9.16 80.12 10.18L80.12 10.18L80.12 10.18Q80.12 11.19 80.60 11.78L80.60 11.78L80.60 11.78Q81.07 12.38 81.93 12.38ZM90.08 13.92L90.08 13.92L90.08 13.92Q88.89 13.92 88.15 13.21L88.15 13.21L88.15 13.21Q87.42 12.50 87.42 10.95L87.42 10.95L87.42 6.59L89.03 6.59L89.03 10.60L89.03 10.60Q89.03 12.38 90.50 12.38L90.50 12.38L90.50 12.38Q92.08 12.38 92.08 10.63L92.08 10.63L92.08 6.59L93.69 6.59L93.69 13.75L92.08 13.75L92.08 13.06L92.08 13.06Q91.39 13.92 90.08 13.92ZM99.83 13.92L99.83 13.92L99.83 13.92Q97.73 13.92 97.73 11.97L97.73 11.97L97.73 8.01L96.24 8.01L96.24 6.59L97.73 6.59L97.73 4.41L99.34 3.64L99.34 6.59L101.78 6.59L101.78 8.01L99.34 8.01L99.34 11.66L99.34 11.66Q99.34 12.49 100.35 12.49L100.35 12.49L100.35 12.49Q100.94 12.49 101.58 12.15L101.58 12.15L101.39 13.59L101.39 13.59Q100.77 13.92 99.83 13.92Z"></path></g><!----><g data-v-423bf9ae="" id="3a7976e0-02b2-443e-ae98-1e5917bf999e" transform="matrix(2.8125,0,0,2.8125,250,0)" stroke="none" fill="#DEB078"><path d="M0 32h32V0H0v32zm19.377-19.492l6.936-6.936v20.855h-6.936V12.508zM5.688 5.572l6.936 6.936v13.919H5.688V5.572z"></path></g><!----><g data-v-423bf9ae="" id="8b7a03b0-97ea-4f99-bc0c-1bf8a6d1ea82" fill="#ffffff" transform="matrix(1.238066467491331,0,0,1.238066467491331,74.14942632696358,198.6825975194458)"><path d="M0.59 7.91C0.59 11.40 2.95 12.89 5.54 12.89C7.43 12.89 9.44 11.89 9.44 11.58C9.44 11.12 9.45 10.68 9.45 10.33C9.45 9.81 9.46 9.56 9.59 9.56L10.02 9.56C10.16 9.56 10.18 9.39 10.18 9.30C10.18 9.18 10.16 9.06 10.02 9.06C9.80 9.06 9.44 9.10 8.76 9.10C8.32 9.10 7.57 9.07 6.89 9.06C6.75 9.06 6.75 9.24 6.75 9.35C6.75 9.45 6.78 9.56 6.90 9.56L8.12 9.56C8.16 9.56 8.22 9.87 8.22 10.33C8.22 10.82 8.20 11.41 8.18 11.65C8.16 11.76 7.52 12.39 5.94 12.39C3.70 12.39 2.10 10.29 2.10 7.94C2.10 5.42 3.65 3.54 5.66 3.54C7.55 3.54 8.72 4.87 8.72 5.03C8.72 5.15 8.67 6.12 8.67 6.17C8.67 6.31 8.71 6.36 8.97 6.36C9.17 6.36 9.24 6.33 9.24 6.15C9.24 5.43 9.28 3.75 9.28 3.56C9.28 3.36 9.18 3.33 8.97 3.33C8.75 3.33 8.72 3.39 8.72 3.56L8.72 3.91C8.72 3.99 8.68 4.02 8.55 3.92C8.27 3.72 7.28 3.08 5.71 3.08C2.87 3.08 0.59 4.79 0.59 7.91ZM18.21 3.51C18.21 3.72 18.28 3.79 18.48 3.79L19.29 3.77C19.39 3.77 19.43 6.61 19.43 8.55L19.43 10.42C19.43 11.30 19.42 12.18 19.38 12.18L18.77 12.18C18.55 12.18 18.48 12.19 18.48 12.39C18.48 12.63 18.52 12.68 18.72 12.68C18.84 12.68 19.67 12.64 20.09 12.64C20.51 12.64 21.28 12.68 21.60 12.68C21.77 12.68 21.80 12.61 21.80 12.40C21.80 12.24 21.77 12.18 21.60 12.18L20.79 12.18C20.72 12.18 20.64 9.18 20.64 8.37C20.64 8.30 20.64 8.26 20.75 8.26C21.14 8.26 21.74 8.27 22.04 8.27C24.28 8.32 24.42 10.00 24.42 11.68L24.42 12.49C24.42 12.61 24.47 12.64 24.57 12.64C24.57 12.64 26.01 12.68 26.49 12.68C26.66 12.68 26.71 12.64 26.71 12.53C26.71 12.24 26.66 12.18 26.50 12.18L25.86 12.18C25.76 12.18 25.73 12.14 25.70 11.31C25.62 8.99 24.25 8.34 23.34 8.05C23.20 8.01 23.23 8.01 23.34 7.95C23.93 7.69 25.24 6.94 25.24 5.63C25.24 3.63 23.55 3.21 22.15 3.21C21.83 3.21 20.54 3.29 20.12 3.29C19.70 3.29 18.72 3.26 18.49 3.26C18.31 3.26 18.21 3.28 18.21 3.51ZM20.64 7.80L20.64 4.40C20.64 4.05 20.66 3.68 20.71 3.68C20.92 3.65 21.20 3.65 21.42 3.65C22.72 3.65 23.97 4.47 23.97 5.82C23.97 6.99 23.42 7.57 22.76 7.88C22.72 7.90 22.68 7.90 22.61 7.90C22.13 7.88 21.42 7.88 20.82 7.87C20.65 7.87 20.64 7.85 20.64 7.80ZM34.12 8.15C34.12 11.17 36.46 12.80 38.71 12.80C41.50 12.80 43.47 10.89 43.47 8.06C43.47 5.33 41.72 3.11 38.92 3.11C36.32 3.11 34.12 5.10 34.12 8.15ZM35.52 7.77C35.52 5.64 36.81 3.58 38.78 3.58C41.02 3.58 42.10 5.81 42.10 7.94C42.10 10.08 40.99 12.32 38.72 12.32C36.74 12.32 35.52 10.28 35.52 7.77ZM50.88 3.51C50.88 3.75 50.99 3.77 51.16 3.77L51.66 3.77C51.74 3.77 53.89 10.99 53.91 11.07C54.26 12.14 54.38 12.99 54.68 12.99C54.91 12.99 55.01 12.67 55.29 12.26C55.44 12.05 55.54 12.01 55.68 11.66L57.67 6.45C57.74 6.29 57.76 6.20 57.79 6.20C57.82 6.20 57.85 6.29 57.89 6.45C58.49 8.51 59.16 11.03 59.18 11.07C59.53 12.14 59.64 12.99 59.95 12.99C60.17 12.99 60.27 12.67 60.55 12.26C60.70 12.05 60.80 12.01 60.94 11.66L64.04 4.06C64.13 3.81 64.13 3.77 64.50 3.77C64.74 3.77 64.79 3.71 64.79 3.53C64.79 3.32 64.75 3.26 64.55 3.26C64.41 3.26 64.11 3.30 63.60 3.30C62.86 3.30 62.36 3.26 62.16 3.26C61.98 3.26 61.88 3.28 61.88 3.51C61.88 3.75 61.99 3.77 62.16 3.77L63.07 3.77C63.14 3.77 63.15 3.81 63.15 3.95C63.15 4.63 61.56 8.72 60.84 10.63C60.70 10.99 60.63 11.17 60.59 11.17C60.54 11.17 60.48 10.99 60.35 10.60C60.27 10.30 59.35 7.18 58.81 5.22C58.77 5.05 58.56 4.17 58.56 3.85C58.56 3.81 58.56 3.79 58.58 3.77L59.46 3.77C59.64 3.77 59.74 3.75 59.74 3.56C59.74 3.32 59.70 3.26 59.50 3.26C59.18 3.26 58.24 3.30 57.82 3.30C57.40 3.30 56.49 3.26 56.27 3.26C56.08 3.26 55.99 3.28 55.99 3.51C55.99 3.75 56.10 3.77 56.27 3.77L57.06 3.77C57.11 3.77 57.29 4.27 57.44 4.83C57.50 5.05 57.54 5.15 57.54 5.25C57.54 5.31 57.54 5.38 57.50 5.49L55.50 10.60C55.40 10.82 55.37 10.95 55.33 10.95C55.29 10.95 55.26 10.84 55.17 10.60C55.09 10.32 54.08 7.27 53.48 5.22C53.44 5.08 53.12 3.96 53.10 3.85C53.12 3.77 53.16 3.77 53.20 3.77L53.90 3.77C54.12 3.77 54.19 3.75 54.19 3.56C54.19 3.32 54.15 3.26 53.96 3.26C53.63 3.26 52.92 3.30 52.50 3.30C52.08 3.30 51.38 3.26 51.16 3.26C50.97 3.26 50.88 3.28 50.88 3.51ZM81.79 3.51C81.79 3.75 81.90 3.77 82.07 3.77L82.57 3.77C82.66 3.77 84.80 10.99 84.83 11.07C85.18 12.14 85.29 12.99 85.60 12.99C85.82 12.99 85.92 12.67 86.20 12.26C86.35 12.05 86.45 12.01 86.59 11.66L88.58 6.45C88.65 6.29 88.68 6.20 88.70 6.20C88.73 6.20 88.76 6.29 88.80 6.45C89.40 8.51 90.08 11.03 90.09 11.07C90.44 12.14 90.55 12.99 90.86 12.99C91.08 12.99 91.18 12.67 91.46 12.26C91.62 12.05 91.71 12.01 91.85 11.66L94.95 4.06C95.05 3.81 95.05 3.77 95.41 3.77C95.65 3.77 95.70 3.71 95.70 3.53C95.70 3.32 95.66 3.26 95.47 3.26C95.33 3.26 95.02 3.30 94.51 3.30C93.77 3.30 93.27 3.26 93.07 3.26C92.89 3.26 92.79 3.28 92.79 3.51C92.79 3.75 92.90 3.77 93.07 3.77L93.98 3.77C94.05 3.77 94.07 3.81 94.07 3.95C94.07 4.63 92.47 8.72 91.76 10.63C91.62 10.99 91.55 11.17 91.50 11.17C91.45 11.17 91.39 10.99 91.27 10.60C91.18 10.30 90.26 7.18 89.73 5.22C89.68 5.05 89.47 4.17 89.47 3.85C89.47 3.81 89.47 3.79 89.49 3.77L90.37 3.77C90.55 3.77 90.65 3.75 90.65 3.56C90.65 3.32 90.61 3.26 90.41 3.26C90.09 3.26 89.15 3.30 88.73 3.30C88.31 3.30 87.40 3.26 87.18 3.26C87.00 3.26 86.90 3.28 86.90 3.51C86.90 3.75 87.01 3.77 87.18 3.77L87.98 3.77C88.02 3.77 88.20 4.27 88.35 4.83C88.41 5.05 88.45 5.15 88.45 5.25C88.45 5.31 88.45 5.38 88.41 5.49L86.41 10.60C86.31 10.82 86.28 10.95 86.24 10.95C86.20 10.95 86.17 10.84 86.09 10.60C86.00 10.32 84.99 7.27 84.39 5.22C84.35 5.08 84.03 3.96 84.01 3.85C84.03 3.77 84.07 3.77 84.11 3.77L84.81 3.77C85.04 3.77 85.11 3.75 85.11 3.56C85.11 3.32 85.06 3.26 84.87 3.26C84.55 3.26 83.83 3.30 83.41 3.30C82.99 3.30 82.29 3.26 82.07 3.26C81.89 3.26 81.79 3.28 81.79 3.51ZM103.18 12.39C103.18 12.63 103.22 12.68 103.42 12.68C103.74 12.68 104.50 12.64 105.21 12.64C105.87 12.64 106.67 12.68 106.89 12.68C107.06 12.68 107.09 12.61 107.09 12.40C107.09 12.24 107.06 12.18 106.89 12.18L105.92 12.18C105.83 12.18 105.80 9.55 105.80 7.76L105.80 5.87C105.80 5.14 105.83 3.70 105.92 3.70L106.83 3.70C107.06 3.70 107.09 3.68 107.09 3.49C107.09 3.25 107.06 3.19 106.89 3.19C106.57 3.19 105.90 3.23 105.24 3.23C104.43 3.23 103.71 3.19 103.49 3.19C103.31 3.19 103.24 3.21 103.24 3.44C103.24 3.68 103.32 3.70 103.49 3.70L104.41 3.70C104.45 3.70 104.52 4.79 104.52 5.71L104.52 7.08C104.52 8.92 104.51 12.18 104.40 12.18L103.47 12.18C103.25 12.18 103.18 12.19 103.18 12.39ZM114.72 5.01C114.72 5.17 114.90 5.17 115.02 5.17C115.18 5.17 115.22 5.15 115.23 4.97L115.35 3.89C115.36 3.81 115.91 3.75 116.66 3.75L118.65 3.75C118.71 3.75 118.73 4.35 118.73 4.97C118.73 6.43 118.68 12.18 118.55 12.18L117.68 12.18C117.46 12.18 117.42 12.19 117.42 12.39C117.42 12.63 117.43 12.68 117.63 12.68C117.95 12.68 118.93 12.64 119.35 12.64C119.77 12.64 120.71 12.68 121.03 12.68C121.20 12.68 121.23 12.61 121.23 12.40C121.23 12.24 121.20 12.18 121.03 12.18L120.04 12.18C120.01 12.18 120.01 11.76 120.01 11.31C120.01 9.56 120.09 5.96 120.09 5.92C120.11 5.18 120.11 3.75 120.20 3.75L121.81 3.75C122.53 3.75 123.35 3.78 123.35 3.85C123.35 3.99 123.31 4.90 123.31 4.97C123.31 5.12 123.38 5.17 123.56 5.17C123.76 5.17 123.83 5.17 123.83 5.03C123.83 3.93 123.89 3.40 123.89 3.14C123.89 2.94 123.80 2.94 123.61 2.94C123.45 2.94 123.40 2.98 123.38 3.16C123.38 3.23 122.74 3.28 121.90 3.28L116.90 3.28C116.24 3.28 115.43 3.28 115.43 3.21L115.43 3.07C115.43 2.94 115.30 2.94 115.21 2.94C114.98 2.94 114.95 3.00 114.94 3.19C114.88 3.89 114.72 4.97 114.72 5.01ZM131.64 12.39C131.64 12.63 131.64 12.68 131.84 12.68C132.16 12.68 133.10 12.64 133.52 12.64C133.94 12.64 134.76 12.68 135.09 12.68C135.25 12.68 135.25 12.61 135.25 12.40C135.25 12.24 135.25 12.18 135.09 12.18L134.16 12.18C134.08 12.18 134.04 9.93 134.04 8.20C134.04 8.01 134.04 8.01 134.16 8.01L139.40 8.01C139.47 8.01 139.48 8.01 139.48 8.18L139.48 9.91C139.48 11.05 139.47 12.18 139.41 12.18L138.64 12.18C138.42 12.18 138.38 12.19 138.38 12.39C138.38 12.63 138.39 12.68 138.59 12.68C138.91 12.68 139.75 12.64 140.17 12.64C140.59 12.64 141.18 12.68 141.50 12.68C141.67 12.68 141.68 12.61 141.68 12.40C141.68 12.24 141.67 12.18 141.50 12.18L140.76 12.18C140.71 12.18 140.70 9.27 140.70 7.04C140.70 5.40 140.70 3.70 140.74 3.70L141.36 3.70C141.58 3.70 141.62 3.68 141.62 3.49C141.62 3.25 141.61 3.19 141.41 3.19C141.27 3.19 140.64 3.23 140.06 3.23C139.38 3.23 138.78 3.19 138.56 3.19C138.36 3.19 138.33 3.22 138.33 3.44C138.33 3.67 138.40 3.70 138.57 3.70L139.37 3.70C139.43 3.70 139.48 4.79 139.48 5.71L139.48 7.42C139.48 7.59 139.48 7.59 139.31 7.59L134.20 7.59C134.04 7.59 134.04 7.59 134.04 7.38C134.04 6.96 134.02 6.23 134.02 5.53C134.02 4.66 134.04 3.70 134.09 3.70L134.86 3.70C135.09 3.70 135.13 3.68 135.13 3.49C135.13 3.25 135.11 3.19 134.92 3.19C134.60 3.19 134.01 3.23 133.41 3.23C132.82 3.23 132.33 3.19 132.10 3.19C131.92 3.19 131.82 3.21 131.82 3.44C131.82 3.68 131.94 3.70 132.10 3.70L132.72 3.70C132.78 3.70 132.79 5.59 132.79 7.18L132.79 8.61C132.79 10.08 132.78 12.18 132.71 12.18L131.89 12.18C131.67 12.18 131.64 12.19 131.64 12.39ZM159.10 3.44C159.10 3.68 159.18 3.70 159.35 3.70L159.75 3.70C159.88 3.70 162.13 7.74 162.54 8.50C162.60 8.60 162.64 8.65 162.64 8.81C162.64 10.50 162.62 12.18 162.50 12.18L161.78 12.18C161.56 12.18 161.52 12.19 161.52 12.39C161.52 12.63 161.53 12.68 161.73 12.68C161.92 12.68 162.74 12.64 163.32 12.64C164.15 12.64 164.68 12.68 165.00 12.68C165.17 12.68 165.20 12.61 165.20 12.40C165.20 12.24 165.17 12.18 165.00 12.18L164.04 12.18C163.94 12.18 163.91 9.72 163.91 8.22C163.91 8.18 163.91 8.15 163.95 8.09C164.50 7.22 166.45 3.70 166.52 3.70L166.99 3.70C167.16 3.70 167.26 3.68 167.26 3.44C167.26 3.22 167.17 3.19 166.99 3.19C166.77 3.19 166.53 3.23 165.93 3.23C165.34 3.23 165.00 3.19 164.84 3.19C164.64 3.19 164.60 3.25 164.60 3.49C164.60 3.68 164.67 3.70 164.89 3.70L165.62 3.70C165.63 3.70 165.65 3.71 165.65 3.74C165.65 4.05 164.08 6.99 163.70 7.71C163.59 7.92 163.59 7.88 163.48 7.67C163.07 6.89 161.78 4.56 161.49 3.85C161.43 3.71 161.42 3.70 161.60 3.70L162.43 3.70C162.65 3.70 162.68 3.68 162.68 3.49C162.68 3.25 162.64 3.19 162.48 3.19C162.25 3.19 161.63 3.23 160.83 3.23C160.02 3.23 159.53 3.19 159.35 3.19C159.17 3.19 159.10 3.21 159.10 3.44ZM174.38 8.15C174.38 11.17 176.72 12.80 178.98 12.80C181.76 12.80 183.74 10.89 183.74 8.06C183.74 5.33 181.99 3.11 179.19 3.11C176.58 3.11 174.38 5.10 174.38 8.15ZM175.78 7.77C175.78 5.64 177.07 3.58 179.05 3.58C181.29 3.58 182.36 5.81 182.36 7.94C182.36 10.08 181.26 12.32 178.99 12.32C177.00 12.32 175.78 10.28 175.78 7.77ZM191.84 3.51C191.84 3.75 191.93 3.77 192.09 3.77L192.63 3.77C192.68 3.77 192.68 4.12 192.68 4.55C192.68 5.66 192.67 8.96 192.67 9.42C192.67 11.13 192.92 12.80 195.78 12.80C196.85 12.80 198.02 12.38 198.67 12.00C198.93 11.86 199.22 11.72 199.30 11.72C199.57 11.72 199.84 12.74 200.17 12.74C200.49 12.74 200.51 12.35 200.51 12.25C200.51 11.96 200.56 10.08 200.61 8.16C200.66 6.12 200.65 3.77 200.76 3.77L201.08 3.77C201.31 3.77 201.38 3.75 201.38 3.56C201.38 3.32 201.33 3.26 201.14 3.26C201.00 3.26 200.47 3.30 200.05 3.30C199.63 3.30 198.83 3.26 198.60 3.26C198.42 3.26 198.32 3.28 198.32 3.51C198.32 3.75 198.44 3.77 198.60 3.77L199.30 3.77C199.37 3.77 199.39 4.30 199.39 4.87L199.39 9.14C199.39 11.19 199.39 11.12 199.05 11.34C198.66 11.61 197.85 12.08 196.67 12.08C194.70 12.08 193.90 11.17 193.90 9.41C193.90 8.82 193.97 3.77 194.08 3.77L194.99 3.77C195.22 3.77 195.26 3.75 195.26 3.56C195.26 3.32 195.24 3.26 195.05 3.26C194.73 3.26 193.84 3.30 193.42 3.30C193.00 3.30 192.32 3.26 192.09 3.26C191.91 3.26 191.84 3.28 191.84 3.51ZM209.41 3.51C209.41 3.72 209.48 3.79 209.68 3.79L210.49 3.77C210.59 3.77 210.63 6.61 210.63 8.55L210.63 10.42C210.63 11.30 210.62 12.18 210.57 12.18L209.97 12.18C209.75 12.18 209.68 12.19 209.68 12.39C209.68 12.63 209.72 12.68 209.92 12.68C210.04 12.68 210.87 12.64 211.29 12.64C211.71 12.64 212.48 12.68 212.80 12.68C212.97 12.68 213.00 12.61 213.00 12.40C213.00 12.24 212.97 12.18 212.80 12.18L211.99 12.18C211.92 12.18 211.83 9.18 211.83 8.37C211.83 8.30 211.83 8.26 211.95 8.26C212.34 8.26 212.94 8.27 213.23 8.27C215.47 8.32 215.61 10.00 215.61 11.68L215.61 12.49C215.61 12.61 215.67 12.64 215.77 12.64C215.77 12.64 217.21 12.68 217.69 12.68C217.85 12.68 217.91 12.64 217.91 12.53C217.91 12.24 217.85 12.18 217.70 12.18L217.06 12.18C216.96 12.18 216.93 12.14 216.90 11.31C216.82 8.99 215.45 8.34 214.54 8.05C214.40 8.01 214.42 8.01 214.54 7.95C215.12 7.69 216.44 6.94 216.44 5.63C216.44 3.63 214.75 3.21 213.35 3.21C213.02 3.21 211.74 3.29 211.32 3.29C210.90 3.29 209.92 3.26 209.69 3.26C209.51 3.26 209.41 3.28 209.41 3.51ZM211.83 7.80L211.83 4.40C211.83 4.05 211.86 3.68 211.90 3.68C212.11 3.65 212.39 3.65 212.62 3.65C213.92 3.65 215.17 4.47 215.17 5.82C215.17 6.99 214.62 7.57 213.96 7.88C213.92 7.90 213.88 7.90 213.81 7.90C213.33 7.88 212.62 7.88 212.02 7.87C211.85 7.87 211.83 7.85 211.83 7.80ZM235.05 12.39C235.05 12.63 235.05 12.68 235.24 12.68C235.41 12.68 235.73 12.64 236.31 12.64C236.92 12.64 237.47 12.68 237.62 12.68C237.79 12.68 237.79 12.61 237.79 12.40C237.79 12.24 237.79 12.18 237.62 12.18L236.54 12.18C236.54 12.18 236.53 12.18 236.53 12.17C236.54 11.87 237.31 9.90 237.66 9.02C237.73 8.83 237.75 8.79 237.96 8.79L240.79 8.79C240.93 8.79 240.93 8.81 241.00 9.03C241.26 9.77 241.98 11.89 241.98 12.17C241.98 12.18 241.96 12.18 241.96 12.18L241.19 12.18C240.97 12.18 240.95 12.19 240.95 12.39C240.95 12.63 240.97 12.68 241.14 12.68C241.46 12.68 242.33 12.64 242.75 12.64C243.17 12.64 243.84 12.68 244.05 12.68C244.19 12.68 244.20 12.61 244.20 12.40C244.20 12.24 244.19 12.18 244.05 12.18L243.56 12.18C243.46 12.18 242.44 9.34 241.88 7.78L240.20 3.07C240.18 3.00 240.11 2.94 240.03 2.94C239.90 2.94 239.81 3.16 239.72 3.35C239.57 3.71 239.33 3.84 239.22 4.13L237.73 7.57C237.55 8.01 235.84 12.18 235.72 12.18L235.30 12.18C235.07 12.18 235.05 12.19 235.05 12.39ZM237.94 8.33C237.94 8.30 237.97 8.23 238.01 8.13L239.39 4.77C239.43 4.66 239.46 4.61 239.48 4.61C239.50 4.61 239.51 4.63 239.55 4.77L240.72 8.18C240.74 8.25 240.76 8.29 240.76 8.32C240.76 8.36 240.73 8.37 240.63 8.37L238.13 8.37C237.94 8.37 237.94 8.34 237.94 8.33ZM251.68 3.51C251.68 3.75 251.76 3.77 251.93 3.77L252.46 3.77C252.52 3.77 252.52 4.12 252.52 4.55C252.52 5.66 252.50 8.96 252.50 9.42C252.50 11.13 252.76 12.80 255.61 12.80C256.69 12.80 257.85 12.38 258.51 12.00C258.76 11.86 259.06 11.72 259.14 11.72C259.41 11.72 259.67 12.74 260.01 12.74C260.33 12.74 260.34 12.35 260.34 12.25C260.34 11.96 260.40 10.08 260.44 8.16C260.50 6.12 260.48 3.77 260.60 3.77L260.92 3.77C261.14 3.77 261.21 3.75 261.21 3.56C261.21 3.32 261.17 3.26 260.97 3.26C260.83 3.26 260.30 3.30 259.88 3.30C259.46 3.30 258.66 3.26 258.44 3.26C258.26 3.26 258.16 3.28 258.16 3.51C258.16 3.75 258.27 3.77 258.44 3.77L259.14 3.77C259.21 3.77 259.22 4.30 259.22 4.87L259.22 9.14C259.22 11.19 259.22 11.12 258.89 11.34C258.50 11.61 257.68 12.08 256.51 12.08C254.53 12.08 253.74 11.17 253.74 9.41C253.74 8.82 253.81 3.77 253.92 3.77L254.83 3.77C255.05 3.77 255.09 3.75 255.09 3.56C255.09 3.32 255.08 3.26 254.88 3.26C254.56 3.26 253.68 3.30 253.26 3.30C252.84 3.30 252.15 3.26 251.93 3.26C251.75 3.26 251.68 3.28 251.68 3.51ZM269.18 12.46C269.18 12.63 269.19 12.70 269.37 12.70C269.53 12.70 270.76 12.64 271.15 12.64C272.01 12.64 272.89 12.70 273.74 12.70C276.36 12.70 278.75 11.07 278.75 7.91C278.75 4.89 276.42 3.07 273.38 3.07C272.82 3.07 271.56 3.23 270.52 3.23C270.05 3.23 269.58 3.22 269.53 3.22C269.35 3.22 269.33 3.32 269.33 3.49C269.33 3.68 269.40 3.70 269.53 3.70L270.49 3.67C270.52 3.67 270.52 4.20 270.52 4.72C270.52 5.91 270.44 12.21 270.35 12.21L269.46 12.21C269.28 12.21 269.18 12.22 269.18 12.46ZM271.75 11.40C271.75 9.46 271.75 7.52 271.77 5.60C271.77 5.03 271.81 3.61 271.85 3.60C272.15 3.53 272.73 3.51 273.08 3.51C275.65 3.51 277.26 5.75 277.26 7.73C277.26 8.95 277.21 12.25 272.54 12.25C272.27 12.25 271.87 12.25 271.77 12.21C271.75 12.19 271.75 11.79 271.75 11.40ZM286.72 12.39C286.72 12.63 286.76 12.68 286.96 12.68C287.28 12.68 288.04 12.64 288.75 12.64C289.41 12.64 290.21 12.68 290.43 12.68C290.60 12.68 290.63 12.61 290.63 12.40C290.63 12.24 290.60 12.18 290.43 12.18L289.46 12.18C289.37 12.18 289.34 9.55 289.34 7.76L289.34 5.87C289.34 5.14 289.37 3.70 289.46 3.70L290.37 3.70C290.60 3.70 290.63 3.68 290.63 3.49C290.63 3.25 290.60 3.19 290.43 3.19C290.11 3.19 289.44 3.23 288.78 3.23C287.97 3.23 287.25 3.19 287.03 3.19C286.85 3.19 286.78 3.21 286.78 3.44C286.78 3.68 286.86 3.70 287.03 3.70L287.95 3.70C287.99 3.70 288.06 4.79 288.06 5.71L288.06 7.08C288.06 8.92 288.05 12.18 287.94 12.18L287.01 12.18C286.79 12.18 286.72 12.19 286.72 12.39ZM298.52 12.39C298.52 12.63 298.55 12.68 298.75 12.68C299.07 12.68 300.03 12.64 300.45 12.64C300.87 12.64 305.38 12.68 305.70 12.68C305.83 12.68 305.98 12.66 305.98 12.49C305.98 12.07 306.03 11.23 306.03 10.53C306.03 10.39 305.87 10.39 305.75 10.39C305.63 10.39 305.51 10.39 305.51 10.51C305.49 11.06 305.49 11.41 305.47 11.76C305.44 12.01 305.44 12.04 305.34 12.04C305.19 12.04 302.55 12.08 301.06 12.08C300.99 12.08 300.94 10.11 300.90 8.26C300.90 8.06 300.94 8.09 301.08 8.09L303.37 8.09C304.07 8.09 304.09 8.20 304.09 8.30L304.09 9.00C304.09 9.14 304.28 9.14 304.39 9.14C304.49 9.14 304.61 9.13 304.61 9.02C304.61 8.83 304.58 8.33 304.58 7.83C304.58 7.32 304.61 6.83 304.61 6.71C304.61 6.59 304.47 6.58 304.37 6.58C304.26 6.58 304.09 6.59 304.09 6.72L304.09 7.45C304.09 7.62 303.65 7.63 303.37 7.63L301.03 7.63C300.92 7.63 300.90 7.63 300.90 7.45C300.89 6.75 300.87 6.06 300.87 5.46C300.87 5.12 300.87 3.71 300.96 3.71C302.19 3.71 304.70 3.75 304.70 3.81C304.70 3.99 304.65 4.83 304.65 4.89C304.65 5.04 304.72 5.10 304.91 5.10C305.10 5.10 305.17 5.08 305.17 4.94C305.17 3.85 305.23 3.36 305.23 3.09C305.23 2.91 305.14 2.90 304.95 2.90C304.75 2.90 304.75 2.95 304.72 3.11C304.71 3.25 304.78 3.25 303.87 3.25C303.25 3.25 301.11 3.29 300.34 3.29C299.85 3.29 298.91 3.25 298.82 3.25C298.69 3.25 298.63 3.30 298.63 3.49C298.63 3.72 298.70 3.74 298.87 3.74L299.53 3.74C299.59 3.74 299.66 4.79 299.66 5.71C299.66 5.80 299.71 8.27 299.71 9.83L299.71 11.17C299.71 11.84 299.68 12.18 299.66 12.18L298.80 12.18C298.58 12.18 298.52 12.21 298.52 12.39ZM313.99 12.39C313.99 12.63 314.01 12.68 314.20 12.68C314.38 12.68 314.76 12.64 315.38 12.64C316.01 12.64 316.57 12.68 316.89 12.68C317.06 12.68 317.06 12.61 317.06 12.40C317.06 12.24 317.06 12.18 316.89 12.18L315.69 12.18C315.64 12.18 315.63 11.54 315.63 10.79C315.63 9.46 315.64 7.48 315.64 5.99C315.64 5.25 315.64 4.84 315.66 4.28C315.66 4.02 315.73 4.14 315.85 4.28L322.74 12.66C322.83 12.75 322.91 12.89 323.02 12.89C323.13 12.89 323.20 12.77 323.20 12.54C323.20 12.39 323.37 6.65 323.39 4.48C323.39 4.06 323.41 3.70 323.44 3.70L324.07 3.70C324.30 3.70 324.35 3.68 324.35 3.49C324.35 3.25 324.35 3.19 324.16 3.19C323.96 3.19 323.53 3.23 322.97 3.23C322.35 3.23 321.55 3.19 321.45 3.19C321.29 3.19 321.29 3.26 321.29 3.47C321.29 3.64 321.29 3.70 321.45 3.70L322.76 3.70C322.77 3.70 322.77 4.33 322.77 4.44C322.77 5.85 322.80 8.33 322.80 9.70L322.80 10.29C322.80 10.57 322.78 10.65 322.56 10.37L316.88 3.39C316.76 3.25 316.74 3.19 316.57 3.19C316.48 3.19 316.11 3.23 315.80 3.23C315.50 3.23 314.43 3.19 314.23 3.19C314.06 3.19 314.03 3.26 314.03 3.47C314.03 3.64 314.06 3.70 314.23 3.70L315.14 3.70C315.14 4.17 315.10 8.53 315.03 10.79C315.00 11.69 315.01 12.18 314.90 12.18L314.26 12.18C314.03 12.18 313.99 12.19 313.99 12.39ZM332.46 7.91C332.46 11.31 334.82 12.87 337.41 12.87C339.19 12.87 340.97 11.90 341.01 11.59C341.18 10.29 341.24 9.70 341.24 9.66C341.24 9.56 341.19 9.52 341.03 9.51C340.97 9.51 340.91 9.49 340.87 9.49C340.76 9.49 340.70 9.53 340.68 9.70L340.49 11.33C340.48 11.45 339.37 12.24 337.81 12.24C335.68 12.24 333.97 10.29 333.97 7.94C333.97 5.42 335.40 3.54 337.40 3.54C339.25 3.54 340.59 5.01 340.59 5.17C340.59 5.29 340.54 6.40 340.54 6.45C340.54 6.59 340.58 6.64 340.84 6.64C341.04 6.64 341.11 6.62 341.11 6.44C341.11 5.73 341.17 3.92 341.17 3.67C341.17 3.47 341.05 3.44 340.84 3.44C340.62 3.44 340.59 3.50 340.59 3.67L340.59 4.05C340.59 4.16 340.55 4.16 340.42 4.06C340.14 3.86 339.16 3.04 337.50 3.04C334.66 3.04 332.46 4.96 332.46 7.91ZM349.62 12.39C349.62 12.63 349.65 12.68 349.85 12.68C350.17 12.68 351.13 12.64 351.55 12.64C351.97 12.64 356.48 12.68 356.80 12.68C356.93 12.68 357.08 12.66 357.08 12.49C357.08 12.07 357.13 11.23 357.13 10.53C357.13 10.39 356.97 10.39 356.85 10.39C356.73 10.39 356.61 10.39 356.61 10.51C356.59 11.06 356.59 11.41 356.57 11.76C356.54 12.01 356.54 12.04 356.44 12.04C356.29 12.04 353.65 12.08 352.16 12.08C352.09 12.08 352.04 10.11 352.00 8.26C352.00 8.06 352.04 8.09 352.18 8.09L354.47 8.09C355.17 8.09 355.19 8.20 355.19 8.30L355.19 9.00C355.19 9.14 355.38 9.14 355.49 9.14C355.59 9.14 355.71 9.13 355.71 9.02C355.71 8.83 355.68 8.33 355.68 7.83C355.68 7.32 355.71 6.83 355.71 6.71C355.71 6.59 355.57 6.58 355.47 6.58C355.36 6.58 355.19 6.59 355.19 6.72L355.19 7.45C355.19 7.62 354.75 7.63 354.47 7.63L352.13 7.63C352.02 7.63 352.00 7.63 352.00 7.45C351.99 6.75 351.97 6.06 351.97 5.46C351.97 5.12 351.97 3.71 352.06 3.71C353.29 3.71 355.80 3.75 355.80 3.81C355.80 3.99 355.75 4.83 355.75 4.89C355.75 5.04 355.82 5.10 356.01 5.10C356.20 5.10 356.27 5.08 356.27 4.94C356.27 3.85 356.33 3.36 356.33 3.09C356.33 2.91 356.24 2.90 356.05 2.90C355.85 2.90 355.85 2.95 355.82 3.11C355.81 3.25 355.88 3.25 354.97 3.25C354.35 3.25 352.21 3.29 351.44 3.29C350.95 3.29 350.01 3.25 349.92 3.25C349.79 3.25 349.73 3.30 349.73 3.49C349.73 3.72 349.80 3.74 349.97 3.74L350.63 3.74C350.69 3.74 350.76 4.79 350.76 5.71C350.76 5.80 350.81 8.27 350.81 9.83L350.81 11.17C350.81 11.84 350.78 12.18 350.76 12.18L349.90 12.18C349.68 12.18 349.62 12.21 349.62 12.39Z"></path></g></svg>